<?xml version="1.0" encoding="UTF-8" standalone="no"?>
<!-- Created with Inkscape (http://www.inkscape.org/) -->

<svg
   xmlns:dc="http://purl.org/dc/elements/1.1/"
   xmlns:cc="http://creativecommons.org/ns#"
   xmlns:rdf="http://www.w3.org/1999/02/22-rdf-syntax-ns#"
   xmlns:svg="http://www.w3.org/2000/svg"
   xmlns="http://www.w3.org/2000/svg"
   xmlns:sodipodi="http://sodipodi.sourceforge.net/DTD/sodipodi-0.dtd"
   xmlns:inkscape="http://www.inkscape.org/namespaces/inkscape"
   width="500"
   height="122.46657"
   id="svg6877"
   version="1.1"
   inkscape:version="0.48.4 r9939"
   sodipodi:docname="Air Astana logo.svg">
  <defs
     id="defs6879">
    <clipPath
       clipPathUnits="userSpaceOnUse"
       id="clipPath182">
      <path
         inkscape:connector-curvature="0"
         d="m 22,612.142 275.811,0 0,35.858 L 22,648 22,612.142 z"
         id="path184" />
    </clipPath>
    <clipPath
       clipPathUnits="userSpaceOnUse"
       id="clipPath190">
      <path
         inkscape:connector-curvature="0"
         d="m 99.512,618.388 120.899,0 0,29.615 -120.899,0 0,-29.615 z"
         id="path192" />
    </clipPath>
  </defs>
  <sodipodi:namedview
     id="base"
     pagecolor="#ffffff"
     bordercolor="#666666"
     borderopacity="1.0"
     inkscape:pageopacity="0.0"
     inkscape:pageshadow="2"
     inkscape:zoom="0.5"
     inkscape:cx="100.44184"
     inkscape:cy="93.548992"
     inkscape:document-units="px"
     inkscape:current-layer="layer1"
     showgrid="false"
     inkscape:snap-bbox="true"
     inkscape:bbox-paths="true"
     inkscape:bbox-nodes="true"
     inkscape:snap-bbox-edge-midpoints="true"
     inkscape:snap-bbox-midpoints="true"
     showguides="true"
     inkscape:guide-bbox="true"
     fit-margin-top="0"
     fit-margin-left="0"
     fit-margin-right="0"
     fit-margin-bottom="0"
     inkscape:window-width="1600"
     inkscape:window-height="838"
     inkscape:window-x="-8"
     inkscape:window-y="-8"
     inkscape:window-maximized="1">
    <sodipodi:guide
       orientation="1,0"
       position="-4.7888e-006,351.37563"
       id="guide6914" />
    <sodipodi:guide
       orientation="1,0"
       position="500,349.31141"
       id="guide6916" />
  </sodipodi:namedview>
  <metadata
     id="metadata6882">
    <rdf:RDF>
      <cc:Work
         rdf:about="">
        <dc:format>image/svg+xml</dc:format>
        <dc:type
           rdf:resource="http://purl.org/dc/dcmitype/StillImage" />
        <dc:title />
      </cc:Work>
    </rdf:RDF>
  </metadata>
  <g
     inkscape:label="Layer 1"
     inkscape:groupmode="layer"
     id="layer1"
     transform="translate(-4.7888e-6,-471.1289)">
    <g
       transform="matrix(4.1357074,0,0,-4.1357074,-411.55251,3151.0673)"
       id="g178">
      <g
         id="g180"
         clip-path="url(#clipPath182)">
        <g
           id="g186">
          <g
             id="g188"
             clip-path="url(#clipPath190)">
            <g
               id="g194"
               transform="translate(99.512,633.15)">
              <path
                 inkscape:connector-curvature="0"
                 d="m 0,0 23.752,-14.762 c 0.526,3.57 -2.785,5.677 -2.816,5.986 -0.036,0.395 2.636,1.38 2.833,4.083 0.333,4.512 -5.848,4.799 -6.06,1.425 -0.113,-1.764 1.851,-1.804 1.912,-0.494 0.085,1.754 1.903,1.423 2.185,-0.551 0.285,-1.977 -2.019,-2.814 -2.94,-2.788 -1.434,0.044 -3.342,1.212 -3.515,2.938 -0.239,2.377 2.447,2.684 -1.018,2.391 -1.361,-0.114 -2.354,0.613 -2.986,1.783 0.785,1.088 1.625,1.844 2.986,1.728 3.465,-0.295 0.779,0.015 1.018,2.415 0.173,1.741 2.081,2.922 3.515,2.965 0.921,0.028 3.225,-0.817 2.94,-2.814 C 21.524,2.314 19.706,1.98 19.621,3.749 19.56,5.073 17.596,5.031 17.709,3.25 c 0.212,-3.404 6.393,-3.116 6.06,1.439 -0.194,2.674 -2.768,3.684 -2.832,4.099 -0.033,0.219 3.33,2.532 2.815,6.065"
                 style="fill:#9c8761;fill-opacity:1;fill-rule:evenodd;stroke:none"
                 id="path196" />
            </g>
            <g
               id="g198"
               transform="translate(217.9233,628.8992)">
              <path
                 inkscape:connector-curvature="0"
                 d="m 0,0 c -0.393,-0.196 -0.982,-0.327 -1.593,-0.327 -1.549,0 -2.466,0.654 -2.466,2.182 0,2.138 1.549,2.684 4.059,2.99 L 0,0 z m 2.487,-0.96 0,7.289 c 0,3.033 -1.92,4.058 -4.342,4.058 -1.855,0 -3.273,-0.524 -4.037,-0.894 l 0.611,-1.528 c 0.72,0.349 1.811,0.72 2.946,0.72 C -0.96,8.685 0,8.271 0,6.743 L 0,6.11 C -3.579,5.761 -6.568,4.866 -6.568,1.768 c 0,-2.27 1.592,-3.579 4.8,-3.579 1.834,0 3.317,0.349 4.255,0.851 z m -11.325,-0.633 0,8.38 c 0,1.898 -1.157,3.6 -4.67,3.6 -1.986,0 -3.491,-0.327 -4.604,-0.851 l 0,-11.129 2.662,0 0,9.973 c 0.502,0.196 0.96,0.327 1.833,0.327 1.681,0 2.117,-1.004 2.117,-1.964 l 0,-8.336 2.662,0 z M -23.437,0 c -0.392,-0.196 -0.981,-0.327 -1.592,-0.327 -1.55,0 -2.466,0.654 -2.466,2.182 0,2.138 1.549,2.684 4.058,2.99 l 0,-4.845 z m 2.489,-0.96 0,7.289 c 0,3.033 -1.921,4.058 -4.343,4.058 -1.855,0 -3.273,-0.524 -4.037,-0.894 l 0.611,-1.528 c 0.72,0.349 1.811,0.72 2.946,0.72 1.375,0 2.334,-0.414 2.334,-1.942 l 0,-0.633 c -3.578,-0.349 -6.568,-1.244 -6.568,-4.342 0,-2.27 1.593,-3.579 4.802,-3.579 1.832,0 3.316,0.349 4.255,0.851 z m -10.715,-0.524 0,1.659 c -0.218,-0.066 -0.393,-0.109 -0.633,-0.109 -0.916,0 -1.287,0.611 -1.287,1.528 l 0,6.873 1.92,0 0,1.702 -1.92,0 0,3.339 -2.663,-0.742 0,-2.597 -1.309,0 0,-1.702 1.309,0 0,-7.005 c 0,-1.636 0.917,-3.186 3.23,-3.186 0.633,0 1.113,0.131 1.353,0.24 z m -7.485,3.274 c 0,1.374 -0.523,2.553 -2.815,3.469 -1.025,0.415 -1.745,0.895 -1.745,1.855 0,0.829 0.589,1.549 1.679,1.549 0.83,0 1.528,-0.371 1.877,-0.654 l 0.655,1.549 c -0.764,0.502 -1.745,0.829 -3.055,0.829 -2.248,0 -3.731,-1.527 -3.731,-3.404 0,-1.222 0.458,-2.444 2.684,-3.295 1.2,-0.458 1.724,-0.938 1.724,-1.942 0,-0.96 -0.721,-1.659 -1.811,-1.659 -0.961,0 -1.768,0.327 -2.204,0.677 l -0.699,-1.702 c 0.699,-0.48 1.877,-0.851 3.252,-0.851 2.574,0 4.189,1.658 4.189,3.579 z M -51.193,0 c -0.393,-0.196 -0.982,-0.327 -1.593,-0.327 -1.549,0 -2.466,0.654 -2.466,2.182 0,2.138 1.549,2.684 4.059,2.99 l 0,-4.845 z m 2.487,-0.96 0,7.289 c 0,3.033 -1.92,4.058 -4.342,4.058 -1.855,0 -3.273,-0.524 -4.037,-0.894 l 0.611,-1.528 c 0.72,0.349 1.811,0.72 2.946,0.72 1.374,0 2.335,-0.414 2.335,-1.942 l 0,-0.633 c -3.579,-0.349 -6.569,-1.244 -6.569,-4.342 0,-2.27 1.593,-3.579 4.801,-3.579 1.834,0 3.317,0.349 4.255,0.851 z m -16.169,11.325 c -2.968,0.088 -4.452,-0.239 -5.674,-0.829 l 0,-11.129 2.662,0 0,9.929 c 0.612,0.349 1.593,0.393 2.488,0.087 l 0.524,1.942 z m -8.598,-11.958 0,11.762 -2.662,0 0,-11.762 2.662,0 z m 0.131,15.101 c 0,0.741 -0.633,1.331 -1.462,1.331 -0.807,0 -1.462,-0.59 -1.462,-1.331 0,-0.72 0.655,-1.31 1.462,-1.31 0.829,0 1.462,0.59 1.462,1.31 z M -81.547,0 c -0.393,-0.196 -0.982,-0.327 -1.593,-0.327 -1.549,0 -2.466,0.654 -2.466,2.182 0,2.138 1.549,2.684 4.059,2.99 l 0,-4.845 z m 2.487,-0.96 0,7.289 c 0,3.033 -1.919,4.058 -4.342,4.058 -1.855,0 -3.273,-0.524 -4.037,-0.894 l 0.611,-1.528 c 0.72,0.349 1.812,0.72 2.946,0.72 1.375,0 2.335,-0.414 2.335,-1.942 l 0,-0.633 c -3.579,-0.349 -6.568,-1.244 -6.568,-4.342 0,-2.27 1.593,-3.579 4.801,-3.579 1.833,0 3.316,0.349 4.254,0.851"
                 style="fill:#2e498e;fill-opacity:1;fill-rule:nonzero;stroke:none"
                 id="path200" />
            </g>
          </g>
        </g>
      </g>
    </g>
  </g>
</svg>
