<svg id="Layer_1" data-name="Layer 1" xmlns="http://www.w3.org/2000/svg" viewBox="0 0 1203.78 235.07"><defs><style>.cls-1{fill:#00afef;}.cls-2{fill:#fef219;}.cls-3{fill:#05b0ee;}.cls-4{fill:#04b0ee;}.cls-5{fill:#fcf119;}.cls-6{fill:#fdfcf0;}</style></defs><path class="cls-1" d="M398.59,71.8h23.15v92.26H398.59v-9.75A45.54,45.54,0,0,1,385,163.6a38.16,38.16,0,0,1-14.78,2.84q-17.88,0-30.92-13.87t-13-34.47q0-21.36,12.62-35t30.66-13.65a39,39,0,0,1,15.58,3.13A42.52,42.52,0,0,1,398.59,82Zm-24.34,19a23.39,23.39,0,0,0-17.83,7.59q-7.1,7.59-7.1,19.46t7.23,19.67a23.37,23.37,0,0,0,17.79,7.72,23.83,23.83,0,0,0,18.08-7.59q7.18-7.59,7.19-19.89,0-12-7.19-19.5A24.12,24.12,0,0,0,374.25,90.8Z"/><path class="cls-1" d="M441.25,71.8h70.63l-41.45,72.67h39.08v19.59H434.88l41.65-72.67H441.25Z"/><path class="cls-1" d="M594.12,71.8h23.15v92.26H594.12v-9.75a45.54,45.54,0,0,1-13.59,9.29,38.12,38.12,0,0,1-14.78,2.84q-17.88,0-30.92-13.87t-13-34.47q0-21.36,12.62-35t30.66-13.65a39,39,0,0,1,15.58,3.13A42.52,42.52,0,0,1,594.12,82Zm-24.33,19A23.41,23.41,0,0,0,552,98.39q-7.1,7.59-7.1,19.46t7.23,19.67a23.41,23.41,0,0,0,17.79,7.72A23.86,23.86,0,0,0,588,137.65q7.17-7.59,7.18-19.89,0-12-7.18-19.5A24.14,24.14,0,0,0,569.79,90.8Z"/><path class="cls-1" d="M709.77,71.8h23.15v126H709.77v-43.5a45.42,45.42,0,0,1-13.59,9.29,38.12,38.12,0,0,1-14.78,2.84q-17.88,0-30.92-13.87t-13-34.47q0-21.36,12.62-35t30.66-13.65a39,39,0,0,1,15.58,3.13A42.52,42.52,0,0,1,709.77,82Zm-24.33,19a23.41,23.41,0,0,0-17.84,7.59q-7.1,7.59-7.1,19.46t7.23,19.67a23.41,23.41,0,0,0,17.79,7.72,23.86,23.86,0,0,0,18.09-7.59q7.17-7.59,7.18-19.89,0-12-7.18-19.5A24.14,24.14,0,0,0,685.44,90.8Z"/><path class="cls-2" d="M933.71,83.59a45.56,45.56,0,0,0-33.63-14.16,43,43,0,0,0-20.41,4.83,47.71,47.71,0,0,0-16.19,14.5v-17H851.61v126h11.87v-49.6a51,51,0,0,0,16.69,13.65,46.63,46.63,0,0,0,53.67-9.63q13.85-14.19,13.85-34.55A46.77,46.77,0,0,0,933.71,83.59Zm-3.05,53.1a36.37,36.37,0,0,1-13.41,13.85,34.81,34.81,0,0,1-18,5,37.29,37.29,0,0,1-18.49-4.91,34.34,34.34,0,0,1-13.45-13.3,38,38,0,0,1-4.69-18.89q0-16,10.53-26.77A34.86,34.86,0,0,1,899.1,80.87a35.77,35.77,0,0,1,31.6,18.56,37.4,37.4,0,0,1,0,37.26Z"/><path class="cls-2" d="M1050.13,71.8v17A46.88,46.88,0,0,0,1034,74.26a43.59,43.59,0,0,0-20.57-4.83,45.61,45.61,0,0,0-33.66,14.16,46.75,46.75,0,0,0-14,34.09q0,20.35,13.87,34.55a46.77,46.77,0,0,0,53.76,9.63,50.89,50.89,0,0,0,16.75-13.65v15.85h11.7V71.8Zm-3.94,65.49a34.39,34.39,0,0,1-13.42,13.3,37.13,37.13,0,0,1-18.47,4.91,35,35,0,0,1-18.08-5,36.35,36.35,0,0,1-13.43-13.85,37.4,37.4,0,0,1,0-37.26,35.83,35.83,0,0,1,31.64-18.56,35,35,0,0,1,26,10.76q10.55,10.77,10.54,26.77A37.9,37.9,0,0,1,1046.19,137.29Z"/><path class="cls-2" d="M1109.83,115.81l50.71-44h-17.43L1100.33,109V70.85h-11.87v93.21h11.87V122.52l46.47,41.54h16.71Z"/><rect class="cls-3" x="753.18" y="115.44" width="71.41" height="11.7"/><path class="cls-1" d="M251.4,37.26c-18,0-59.78,6.27-59.78,64.44,0,17.08,3.94,31.21,11.7,42,10.45,14.49,27.52,22.47,48.08,22.47s37.63-8,48.07-22.47c7.77-10.77,11.71-24.9,11.71-42C311.18,43.53,269.37,37.26,251.4,37.26Zm0,105.26c-25.7,0-33.78-18.28-33.78-40.82S224,60.89,251.4,60.89s33.78,18.28,33.78,40.81S277.1,142.52,251.4,142.52Z"/><path class="cls-1" d="M245.59,135.74l7.29-15.41s21.11,8,31.6,19c11.33,11.89,31.81,18.08,31.81,18.08l-9.18,19.11s-23-7.85-36.58-23.24C257.68,138.73,245.59,135.74,245.59,135.74Z"/><rect class="cls-4" x="40.26" y="44.2" width="125.76" height="125.76"/><circle class="cls-5" cx="103.26" cy="107.08" r="62.97"/><path class="cls-6" d="M98.22,87.73A41.63,41.63,0,0,0,99,94.18c.48,1.76,1.32,3.91,3.73,3.66s2.8-2.4,3.35-4.21c.66-2.14-.21-4.25-.75-6.71,2.73.41,5.07,1.14,7.37,1,6.63-.33,11.09-8.37,7.8-13.93-1.63-2.75-3.93-4.68-7.48-3.41-1.23.45-2.71.86-2.9,2.53s.9,2.52,2.28,2.91c2.09.58,4.92.65,3.47,3.94s-4.21,2.83-6.94,1.45c-4.35-2.21-5.35-6.11-2.84-11.13,2.82-5.63,8.48-7.58,13.76-4.75a16.41,16.41,0,0,0,14.83.75c3-1.23,6.58-3.38,9.12-.65,2.13,2.29.2,5.7-1,8.46a8.76,8.76,0,0,1-1.19,2.14c-3.44,4.08-5.39,7.52.5,11.76,3.54,2.55,3.44,7.37,1.1,11.28a10.06,10.06,0,0,1-10.47,5.1A6.23,6.23,0,0,1,127.44,96c.55-1.61,1.37-3.15,3.36-3,1.83.09,1.89,1.59,1.89,3,0,2.45,1.26,3.81,3.61,2.94,2.59-1,3.92-3.09,2.8-5.9s-3-5.27-6.5-5.49-7.07-.21-9.5,3.36c-2.8,4.09-2.28,8.21-.8,12.45-1.31.9-2.69.39-4,.38-2.8,0-6.35.07-6.61,3.31-.3,3.59,3.37,3.86,6.07,3.67,3.8-.27,3.59,1.66,3.58,4.5,0,7.32,2.67,10.59,8.92,11.5,4.2.61,7-1.2,7.83-5.34.45-2.11.7-4.68-1.89-5.65s-3.08,1.24-3.55,3.17a2.21,2.21,0,0,1-3.09,1.73,3.76,3.76,0,0,1-2.52-3c-.59-2.59,0-5.09,2.29-6.53,2.57-1.63,5.38-2.52,8.59-1.17,6,2.54,9.65,12.86,3.42,17.82-3.26,2.59-4.42,4.52-.75,8.17,4,4,5.46,12.71,3.18,13.27-4.8,1.19-9-1-12.55-4.3-1-.89-1.65-2.21-3.57-2.44-1.45,1.59-2.85,3.64-4.71,5.07a9.93,9.93,0,0,1-12.27.46c-3.58-2.35-4.56-6-4-10.1.49-3.42,2.6-5.33,6-5.68,2.18-.23,3.91.71,4.45,2.79s-.79,3-2.69,3.24c-1.41.16-2.87.3-2.83,2.15s1.56,2.75,3.21,3.16c2.25.57,4.4.44,6-1.52a8.59,8.59,0,0,0,1.47-9.22c-2.1-5.12-6.36-6.93-13.62-6-1.39-1-.72-2.45-.93-3.73-.48-2.87-.6-6.87-4.39-6.56-2.89.23-3.46,3.77-3.4,6.67,0,1.35-.12,2.7-.19,4l.12-.13c-9.33-2-15.2,1.59-15.13,9.25,0,4.86,3.35,8,7.77,7.41,1.74-.23,3.35-.87,3.66-2.7.28-1.61-1.09-2.25-2.49-2.69-2.06-.65-4.78-1.07-3-4.26,1.52-2.8,4.1-2.33,6.48-1.32,4.3,1.83,5.51,6.25,3.2,11.11-2.71,5.71-8.52,7.93-13.6,5.19-2.71-1.45-4.3-4.14-7-6.74-4,3.4-8,6.57-13.23,7.52-3.72.67-5.13-.61-4.59-4.3.83-5.67,4.2-10,7.79-14.09a65.13,65.13,0,0,1-5.27-4.39c-3-3.06-3.4-6.87-2-10.68,1.56-4.31,5.37-6.26,9.57-6.82,4.9-.66,8.42,5,6.34,9.69a3.34,3.34,0,0,1-2.39,2c-1.78.31-2.35-.93-2.34-2.47,0-3-1.42-4.19-4.12-3s-3.32,3.57-2.06,6.19c1.88,3.92,5.14,5.52,9.43,5.06a9.59,9.59,0,0,0,8.28-8.8c.14-2.34-.42-4.71-.69-7.26a57.64,57.64,0,0,0,7.23-.67c1.57-.34,3.2-1.41,3.14-3.32s-1.73-2.72-3.37-3c-2.15-.29-4.35-.25-7.37-.4.8-2.74,1.44-5.54.9-8.33-.9-4.63-6.26-8.34-11.12-7.67-4.37.61-6,3.41-5.78,7.51.1,1.62.41,3.47,2.43,3.79s2.82-1.14,3-3c.16-1.39.45-3,2.19-2.83s2.81,1.55,3.4,3.2a5.24,5.24,0,0,1-1.32,6c-2.57,2.23-5.56,3.36-9.1,1.94a10.79,10.79,0,0,1-4.33-17,50.81,50.81,0,0,1,5.09-4.64c-4.21-4.17-7.31-8.12-7.76-13.67-.33-4,1.26-5,4.67-4.15,3.23.77,6.41,2,8.71,4.39,2.55,2.68,4.34,2.47,6.4-.48,2.43-3.47,6-4.66,10.13-4a9.8,9.8,0,0,1,7.77,13c-1.36,3.5-4.09,5-7.84,4a3.52,3.52,0,0,1-2.46-3c-.22-1.76,1-2.4,2.49-2.46,1.82-.07,3.48-.44,3.06-2.7-.35-1.85-2.11-2.35-3.75-2.72-3.11-.7-5.31.42-6.69,3.31a9.81,9.81,0,0,0,7.49,13.62,42.36,42.36,0,0,0,6.56-.1Z"/><path class="cls-6" d="M99.8,127.25l.82.59c-.15,0-.36,0-.43-.1a2.48,2.48,0,0,1-.27-.62Z"/></svg>