<svg id="rixos" xmlns="http://www.w3.org/2000/svg" viewBox="0 0 652 190"><defs><style>.cls-1{fill:#897869;}</style></defs><path class="cls-1" d="M231.1,179.5a5.33,5.33,0,0,0,2.9-.9c.4-.4.6-1.5.6-3.2V158.2a3.94,3.94,0,0,0-.7-2.8,4.88,4.88,0,0,0-2.8-.8V154h11v.7a5.28,5.28,0,0,0-2.9.8,4.31,4.31,0,0,0-.7,2.8V166h12v-7.7a4.63,4.63,0,0,0-.6-2.8,4.88,4.88,0,0,0-2.8-.8V154h11v.7a4.61,4.61,0,0,0-2.8.8,4.43,4.43,0,0,0-.6,2.8V176a4.43,4.43,0,0,0,.6,2.8,4.88,4.88,0,0,0,2.8.8v.7h-11v-.7c1.6-.2,2.5-.4,2.9-.9s.6-1.5.6-3.2v-7.7h-12V176c0,1.4.2,2.4.7,2.8a5,5,0,0,0,2.9.8v.7h-11v-.8Z"/><path class="cls-1" d="M231.1,179.5a5.33,5.33,0,0,0,2.9-.9c.4-.4.6-1.5.6-3.2V158.2a3.94,3.94,0,0,0-.7-2.8,4.88,4.88,0,0,0-2.8-.8V154h11v.7a5.28,5.28,0,0,0-2.9.8,4.31,4.31,0,0,0-.7,2.8V166h12v-7.7a4.63,4.63,0,0,0-.6-2.8,4.88,4.88,0,0,0-2.8-.8V154h11v.7a4.61,4.61,0,0,0-2.8.8,4.43,4.43,0,0,0-.6,2.8V176a4.43,4.43,0,0,0,.6,2.8,4.88,4.88,0,0,0,2.8.8v.7h-11v-.7c1.6-.2,2.5-.4,2.9-.9s.6-1.5.6-3.2v-7.7h-12V176c0,1.4.2,2.4.7,2.8a5,5,0,0,0,2.9.8v.7h-11v-.8Z"/><path class="cls-1" d="M276.8,176.4a7.57,7.57,0,0,0,6.1,3,7.87,7.87,0,0,0,6-2.9c1.7-2,2.5-5.1,2.5-9.4s-.8-7.5-2.5-9.4a7.87,7.87,0,0,0-6-2.9,7.71,7.71,0,0,0-6.1,3c-1.6,2-2.5,5.1-2.5,9.3s.9,7.3,2.5,9.3m-2.9-19.5a13.32,13.32,0,0,1,18,0c2.7,2.5,4,5.9,4,10.2a13.63,13.63,0,0,1-4.1,10.3,13.31,13.31,0,0,1-18.2-.4,13.67,13.67,0,0,1-3.7-9.9,13.48,13.48,0,0,1,4-10.2"/><path class="cls-1" d="M276.8,176.4a7.57,7.57,0,0,0,6.1,3,7.87,7.87,0,0,0,6-2.9c1.7-2,2.5-5.1,2.5-9.4s-.8-7.5-2.5-9.4a7.87,7.87,0,0,0-6-2.9,7.71,7.71,0,0,0-6.1,3c-1.6,2-2.5,5.1-2.5,9.3s.9,7.3,2.5,9.3m-2.9-19.5a13.32,13.32,0,0,1,18,0c2.7,2.5,4,5.9,4,10.2a13.63,13.63,0,0,1-4.1,10.3,13.31,13.31,0,0,1-18.2-.4,13.67,13.67,0,0,1-3.7-9.9,13.48,13.48,0,0,1,4-10.2"/><path class="cls-1" d="M304.9,154h22.4l.2,6.7h-.9c-.5-2.1-1.1-3.5-1.8-4.1s-2.2-1-4.5-1h-2.2v20.3c0,1.5.2,2.5.7,2.9a6.05,6.05,0,0,0,3.1.7v.7H310.3v-.7c1.7-.1,2.7-.4,3.1-.8s.6-1.5.6-3.2V155.6h-2.2c-2.2,0-3.7.3-4.5,1s-1.4,2-1.8,4.1h-1Z"/><path class="cls-1" d="M304.9,154h22.4l.2,6.7h-.9c-.5-2.1-1.1-3.5-1.8-4.1s-2.2-1-4.5-1h-2.2v20.3c0,1.5.2,2.5.7,2.9a6.05,6.05,0,0,0,3.1.7v.7H310.3v-.7c1.7-.1,2.7-.4,3.1-.8s.6-1.5.6-3.2V155.6h-2.2c-2.2,0-3.7.3-4.5,1s-1.4,2-1.8,4.1h-1Z"/><path class="cls-1" d="M339.5,179.5c1.5-.2,2.4-.4,2.8-.8a4.11,4.11,0,0,0,.7-2.8V158.2a4.63,4.63,0,0,0-.6-2.8,4.88,4.88,0,0,0-2.8-.8V154h21.1l.1,5.7h-1c-.3-1.8-.8-2.9-1.5-3.4s-2.2-.8-4.5-.8h-5.4a1.44,1.44,0,0,0-1.1.3,2.15,2.15,0,0,0-.2,1v8.9h6.1c1.7,0,2.8-.3,3.2-.8a6.28,6.28,0,0,0,1.1-3.1h.9V171h-.9a6.91,6.91,0,0,0-1.1-3c-.5-.5-1.5-.8-3.2-.8h-6.1V177c0,.8.3,1.3.7,1.4a31.94,31.94,0,0,0,4.5.2,14.21,14.21,0,0,0,5.9-.9c1.3-.6,2.4-2,3.5-4.3h1.1l-1.8,6.7H339.5v-.6Z"/><path class="cls-1" d="M339.5,179.5c1.5-.2,2.4-.4,2.8-.8a4.11,4.11,0,0,0,.7-2.8V158.2a4.63,4.63,0,0,0-.6-2.8,4.88,4.88,0,0,0-2.8-.8V154h21.1l.1,5.7h-1c-.3-1.8-.8-2.9-1.5-3.4s-2.2-.8-4.5-.8h-5.4a1.44,1.44,0,0,0-1.1.3,2.15,2.15,0,0,0-.2,1v8.9h6.1c1.7,0,2.8-.3,3.2-.8a6.28,6.28,0,0,0,1.1-3.1h.9V171h-.9a6.91,6.91,0,0,0-1.1-3c-.5-.5-1.5-.8-3.2-.8h-6.1V177c0,.8.3,1.3.7,1.4a31.94,31.94,0,0,0,4.5.2,14.21,14.21,0,0,0,5.9-.9c1.3-.6,2.4-2,3.5-4.3h1.1l-1.8,6.7H339.5v-.6Z"/><path class="cls-1" d="M374.5,179.5c1.5-.2,2.4-.4,2.8-.8a4.11,4.11,0,0,0,.7-2.8V158.2a4.63,4.63,0,0,0-.6-2.8,5,5,0,0,0-2.9-.8V154h11.2v.7a5.46,5.46,0,0,0-2.9.7c-.5.4-.7,1.3-.7,2.6v19.1a2.51,2.51,0,0,0,.2,1,1.87,1.87,0,0,0,1,.5c.3,0,.6.1.9.1h1.9q5.25,0,7.2-.9t3.6-4.5h1l-1.9,6.9H374.6v-.7Z"/><path class="cls-1" d="M374.5,179.5c1.5-.2,2.4-.4,2.8-.8a4.11,4.11,0,0,0,.7-2.8V158.2a4.63,4.63,0,0,0-.6-2.8,5,5,0,0,0-2.9-.8V154h11.2v.7a5.46,5.46,0,0,0-2.9.7c-.5.4-.7,1.3-.7,2.6v19.1a2.51,2.51,0,0,0,.2,1,1.87,1.87,0,0,0,1,.5c.3,0,.6.1.9.1h1.9q5.25,0,7.2-.9t3.6-4.5h1l-1.9,6.9H374.6v-.7Z"/><path class="cls-1" d="M406.4,172.3a15.67,15.67,0,0,0,2.4,4.3,7.29,7.29,0,0,0,5.9,2.8,4.79,4.79,0,0,0,3.3-1.2,4.29,4.29,0,0,0,1.4-3.4,4.94,4.94,0,0,0-1.4-3.4,26.1,26.1,0,0,0-3.8-2.7l-3.4-2.1a12.9,12.9,0,0,1-2.5-2,6.21,6.21,0,0,1-1.7-4.1,6.86,6.86,0,0,1,2-5,7.24,7.24,0,0,1,5.3-2,9.31,9.31,0,0,1,3.3.7c1.3.4,2,.7,2.2.7a1.33,1.33,0,0,0,1-.3,2.32,2.32,0,0,0,.4-1h.8l.9,8.5h-.9a8.85,8.85,0,0,0-3.1-5.3,7.2,7.2,0,0,0-4.2-1.5,4,4,0,0,0-2.8,1,3.16,3.16,0,0,0-1.2,2.7,3.92,3.92,0,0,0,.9,2.6,12.68,12.68,0,0,0,2.9,2.3l3.5,2.2a17.39,17.39,0,0,1,4.6,3.7,6.2,6.2,0,0,1,1.3,4,6.59,6.59,0,0,1-2.4,5.2,8.78,8.78,0,0,1-6,2.1,11.51,11.51,0,0,1-3.9-.7,10.53,10.53,0,0,0-2.3-.7c-.5,0-.8.1-.9.4a1.61,1.61,0,0,0-.3.9h-.9l-1.2-8.5h.8Z"/><path class="cls-1" d="M406.4,172.3a15.67,15.67,0,0,0,2.4,4.3,7.29,7.29,0,0,0,5.9,2.8,4.79,4.79,0,0,0,3.3-1.2,4.29,4.29,0,0,0,1.4-3.4,4.94,4.94,0,0,0-1.4-3.4,26.1,26.1,0,0,0-3.8-2.7l-3.4-2.1a12.9,12.9,0,0,1-2.5-2,6.21,6.21,0,0,1-1.7-4.1,6.86,6.86,0,0,1,2-5,7.24,7.24,0,0,1,5.3-2,9.31,9.31,0,0,1,3.3.7c1.3.4,2,.7,2.2.7a1.33,1.33,0,0,0,1-.3,2.32,2.32,0,0,0,.4-1h.8l.9,8.5h-.9a8.85,8.85,0,0,0-3.1-5.3,7.2,7.2,0,0,0-4.2-1.5,4,4,0,0,0-2.8,1,3.16,3.16,0,0,0-1.2,2.7,3.92,3.92,0,0,0,.9,2.6,12.68,12.68,0,0,0,2.9,2.3l3.5,2.2a17.39,17.39,0,0,1,4.6,3.7,6.2,6.2,0,0,1,1.3,4,6.59,6.59,0,0,1-2.4,5.2,8.78,8.78,0,0,1-6,2.1,11.51,11.51,0,0,1-3.9-.7,10.53,10.53,0,0,0-2.3-.7c-.5,0-.8.1-.9.4a1.61,1.61,0,0,0-.3.9h-.9l-1.2-8.5h.8Z"/><path class="cls-1" d="M504.3,93.3a35.24,35.24,0,0,0,5.5,9.9,17.18,17.18,0,0,0,13.6,6.4,11,11,0,0,0,7.6-2.8,9.7,9.7,0,0,0,3.2-7.8,11,11,0,0,0-3.2-7.8c-1.4-1.4-4.4-3.5-8.9-6.3L514.2,80a28.3,28.3,0,0,1-5.7-4.5,14.07,14.07,0,0,1-3.9-9.6,15.75,15.75,0,0,1,4.6-11.6c3.1-3.1,7.2-4.6,12.3-4.6a21.53,21.53,0,0,1,7.5,1.6,35.39,35.39,0,0,0,5.1,1.5,2.89,2.89,0,0,0,2.3-.8,5.48,5.48,0,0,0,1-2.3h1.9l2,19.6h-2.2c-1.5-5.9-3.9-10-7.2-12.4a17.26,17.26,0,0,0-9.8-3.5,10.3,10.3,0,0,0-6.6,2.2,7.34,7.34,0,0,0-2.8,6.2,8.81,8.81,0,0,0,2.2,6.1,26.43,26.43,0,0,0,6.7,5.3l8.1,5c5.1,3.1,8.6,6,10.7,8.6a15.73,15.73,0,0,1,3.1,9.3,15.37,15.37,0,0,1-5.5,12.1,20.32,20.32,0,0,1-13.9,4.9,26.62,26.62,0,0,1-8.9-1.6,31.74,31.74,0,0,0-5.3-1.6,2.25,2.25,0,0,0-2.2,1,5.79,5.79,0,0,0-.7,2.1h-2l-2.7-19.6h2Z"/><path class="cls-1" d="M215.8,110.1c3.7-.3,6.2-.8,7.3-1.7s1.7-3.1,1.7-6.6V60.9c0-3.4-.6-5.6-1.7-6.5s-3.5-1.6-7.3-1.8V50.9H243v1.7c-3.7.2-6.2.8-7.3,1.8s-1.7,3.1-1.7,6.5v40.9c0,3.6.6,5.8,1.7,6.6s3.5,1.4,7.3,1.7v1.7H215.8Z"/><path class="cls-1" d="M409.6,102.9c3.8,4.6,8.5,6.9,14,6.9a17.6,17.6,0,0,0,13.9-6.7c3.9-4.5,5.8-11.7,5.8-21.7s-1.9-17.3-5.8-21.7S429,53,423.7,53c-5.5,0-10.2,2.3-14,7S404,71.8,404,81.5s1.8,16.7,5.6,21.4m-6.9-45.1a29.14,29.14,0,0,1,20.9-8.1c8.3,0,15.3,2.7,20.9,8.2,6.1,5.9,9.2,13.8,9.2,23.6,0,10-3.2,17.9-9.5,23.8a29.19,29.19,0,0,1-20.6,7.9c-8.6,0-15.8-2.9-21.5-8.8s-8.7-13.6-8.7-23c.1-9.8,3.1-17.7,9.3-23.6"/><path class="cls-1" d="M111,110.1q5.25-.45,6.6-2.1c.9-1,1.3-3.5,1.3-7.3V60.8q0-4.8-1.5-6.3c-1-1-3.1-1.7-6.4-1.9V50.9h25.5a39.22,39.22,0,0,1,13.3,2c6.7,2.5,10.1,7.2,10.1,14.1,0,4.6-1.5,8.1-4.5,10.6s-7,4.1-12.1,4.8l19,23.3a12.19,12.19,0,0,0,3.5,3.1,11.37,11.37,0,0,0,4.5,1.3v1.7H155.5L133.6,83.5l-5.1.2v18.1c0,3.4.5,5.6,1.5,6.5s3.3,1.5,6.8,1.8v1.7H111Zm31.5-31.9c4.9-2,7.3-5.8,7.3-11.3,0-5.3-2.2-9-6.6-10.9a23.56,23.56,0,0,0-9.3-1.6q-3.9,0-4.8.6c-.6.4-.9,1.2-.9,2.6V80.3c6.7-.2,11.4-.9,14.3-2.1"/><polygon class="cls-1" points="327.2 9.9 334.6 19.6 330.5 43.1 339.1 19.6 350 19.6 327.2 54 304.4 19.6 315.4 19.6 324 43.1 319.8 19.6 327.2 9.9"/><polygon class="cls-1" points="354.6 30.2 327.2 70.4 299.9 30.2 286.5 30.2 318.9 80.5 289 126.5 15.4 126.9 69.4 135.5 296.5 136.3 327.2 89.4 358 136.3 585.1 135.5 639 126.9 365.4 126.5 335.6 80.5 368 30.2 354.6 30.2"/></svg>