<?xml version="1.0" encoding="UTF-8"?>
<svg xmlns="http://www.w3.org/2000/svg" xmlns:xlink="http://www.w3.org/1999/xlink" width="60px" height="60px" viewBox="0 0 60 60" version="1.1">
<g id="surface1">
<path style=" stroke:none;fill-rule:nonzero;fill:rgb(2.352941%,46.27451%,33.333333%);fill-opacity:1;" d="M 0 29.984375 C 0 13.425781 13.421875 0 29.984375 0 C 46.542969 0 59.964844 13.425781 59.964844 29.984375 C 59.964844 46.542969 46.542969 59.964844 29.984375 59.964844 C 13.421875 59.964844 0 46.542969 0 29.984375 "/>
<path style=" stroke:none;fill-rule:nonzero;fill:rgb(100%,100%,100%);fill-opacity:1;" d="M 0.882812 29.984375 C 0.882812 13.914062 13.910156 0.886719 29.984375 0.886719 C 46.054688 0.886719 59.082031 13.914062 59.082031 29.984375 C 59.082031 46.054688 46.054688 59.082031 29.984375 59.082031 C 13.910156 59.082031 0.882812 46.054688 0.882812 29.984375 "/>
<path style=" stroke:none;fill-rule:nonzero;fill:rgb(2.352941%,46.27451%,33.333333%);fill-opacity:1;" d="M 29.984375 1.832031 C 14.433594 1.832031 1.832031 14.4375 1.832031 29.984375 C 1.832031 45.53125 14.433594 58.132812 29.984375 58.132812 C 45.53125 58.132812 58.132812 45.53125 58.132812 29.984375 C 58.132812 14.4375 45.53125 1.832031 29.984375 1.832031 Z M 30.25 3.835938 C 31.105469 3.847656 31.933594 3.957031 32.660156 4.3125 C 33.132812 4.738281 33.269531 5.296875 33.242188 5.921875 C 33.109375 6.359375 32.867188 6.785156 32.476562 7.089844 C 32.953125 7.441406 33.425781 7.808594 33.5 8.441406 C 33.632812 9.0625 33.449219 9.621094 33.097656 10.085938 C 32.355469 10.925781 31.171875 10.707031 30.101562 10.742188 L 27.265625 10.820312 L 27.25 10.5625 L 26.957031 4.128906 L 26.945312 3.988281 C 27.992188 3.980469 29.144531 3.828125 30.25 3.835938 Z M 35.691406 4.496094 L 37.9375 5.21875 C 37.433594 6.664062 36.777344 8.085938 36.421875 9.609375 C 36.386719 9.988281 36.613281 10.378906 37.042969 10.488281 C 37.34375 10.652344 37.769531 10.683594 37.996094 10.488281 C 38.960938 9.136719 39.414062 7.453125 40.019531 5.9375 C 40.785156 6.207031 41.386719 6.589844 42.128906 6.871094 C 41.335938 8.554688 40.847656 10.53125 39.75 11.914062 C 38.957031 12.609375 37.703125 12.4375 36.753906 12.207031 C 35.667969 11.816406 34.488281 11.121094 34.15625 9.902344 C 33.902344 9.070312 35.058594 6.207031 35.691406 4.496094 Z M 22.726562 4.9375 C 23.417969 4.921875 24.066406 5.121094 24.605469 5.679688 C 25.042969 6.164062 25.105469 6.847656 25.117188 7.46875 C 25.007812 7.867188 24.90625 8.273438 24.640625 8.601562 C 25.21875 9.3125 26.292969 10.121094 27.035156 10.828125 L 26.945312 10.855469 L 24.75 11.34375 C 23.96875 10.714844 23.53125 10.269531 22.851562 9.804688 C 22.558594 9.839844 22.355469 10.015625 22.082031 10.136719 L 22.835938 11.867188 L 20.777344 12.988281 C 19.933594 10.929688 18.898438 8.519531 18.132812 6.589844 C 19.464844 6.054688 21.207031 4.976562 22.726562 4.9375 Z M 44.429688 9.097656 C 45.703125 9.121094 46.84375 9.660156 47.609375 10.597656 C 48.023438 11.109375 48.300781 11.742188 48.484375 12.390625 C 47.972656 12.664062 47.582031 12.976562 47.09375 13.195312 C 46.976562 12.441406 46.5625 11.671875 45.820312 11.292969 C 45.464844 11.085938 44.9375 11.050781 44.535156 11.183594 C 43.914062 11.414062 43.382812 11.949219 43.148438 12.570312 C 42.941406 13.167969 43.171875 13.753906 43.515625 14.214844 C 43.992188 14.753906 44.625 15.035156 45.339844 15.058594 C 45.019531 15.585938 44.84375 15.921875 44.535156 16.335938 C 43.34375 16.164062 42.222656 15.507812 41.539062 14.398438 C 40.957031 13.460938 40.921875 12.023438 41.433594 11.039062 C 41.96875 9.953125 43.027344 9.257812 44.171875 9.101562 C 44.257812 9.097656 44.34375 9.09375 44.429688 9.097656 Z M 14.246094 9.121094 L 14.453125 9.246094 C 16.472656 10.480469 18.542969 11.929688 20.585938 13.09375 L 20.375 13.234375 L 18.765625 14.292969 C 18.167969 13.976562 17.816406 13.761719 17.378906 13.5625 L 15.597656 15.058594 C 15.78125 15.5 16.015625 16.035156 16.210938 16.523438 L 14.621094 18.300781 L 14.492188 18.019531 L 11.675781 11.328125 Z M 29.917969 12.527344 C 39.492188 12.527344 47.253906 20.289062 47.253906 29.863281 C 47.253906 39.4375 39.492188 47.199219 29.917969 47.199219 C 20.34375 47.199219 12.582031 39.4375 12.582031 29.863281 C 12.582031 20.289062 20.34375 12.527344 29.917969 12.527344 Z M 49.945312 13.179688 L 51.261719 14.914062 C 50.703125 15.472656 49.960938 15.949219 49.363281 16.484375 C 50.3125 16.691406 51.382812 16.652344 52.359375 16.8125 C 52.796875 17.445312 53.03125 18.054688 53.457031 18.824219 L 49.875 18.570312 C 49.085938 19.8125 48.363281 21.078125 47.679688 22.371094 C 47.253906 21.75 46.925781 20.945312 46.511719 20.25 C 46.976562 19.3125 47.578125 18.320312 48.042969 17.382812 C 47.242188 17.875 46.542969 18.515625 45.730469 19.023438 L 44.46875 17.324219 C 46.171875 15.863281 48.007812 14.558594 49.800781 13.234375 Z M 9.574219 13.601562 L 11.042969 14.460938 C 10.71875 15.132812 10.292969 15.589844 9.996094 16.230469 L 14.160156 18.96875 C 13.941406 19.589844 13.46875 20.203125 13.066406 20.796875 L 8.789062 18.128906 C 8.40625 18.632812 8.128906 19.152344 7.746094 19.796875 C 7.183594 19.429688 6.789062 19.183594 6.339844 18.859375 C 7.398438 17.09375 8.40625 15.433594 9.574219 13.601562 Z M 5.9375 20.285156 C 6.304688 20.492188 6.730469 20.808594 7.105469 21.125 C 6.351562 21.710938 5.8125 22.5625 5.972656 23.539062 C 6.058594 23.683594 6.144531 23.902344 6.339844 23.9375 C 6.945312 23.9375 7.15625 23.28125 7.433594 22.878906 C 7.765625 22.148438 8.398438 21.359375 9.261719 21.273438 C 10.003906 21.226562 10.640625 21.417969 11.128906 22.003906 C 11.871094 22.894531 11.738281 24.328125 11.386719 25.367188 C 11.054688 26.132812 10.542969 26.914062 9.8125 27.414062 L 8.496094 26.609375 C 9.214844 26.113281 9.972656 25.292969 10.070312 24.378906 C 10.070312 24.050781 9.996094 23.613281 9.59375 23.578125 C 8.753906 23.820312 8.664062 24.832031 8.09375 25.402344 C 7.65625 25.855469 7.105469 26.195312 6.410156 26.097656 C 5.765625 26.058594 5.214844 25.65625 4.839844 25.144531 C 4.121094 24.050781 4.476562 22.441406 4.914062 21.601562 C 5.183594 21.125 5.5 20.652344 5.9375 20.285156 Z M 52.800781 20.851562 C 53.648438 20.84375 54.460938 21.363281 54.84375 22.078125 C 55.476562 23.101562 55.722656 24.453125 55.394531 25.695312 L 54.042969 25.625 C 54.226562 24.808594 54.359375 23.78125 53.785156 23.101562 C 53.617188 22.894531 53.3125 22.769531 53.09375 22.878906 C 52.351562 23.710938 53.152344 24.90625 52.691406 25.84375 C 52.46875 26.269531 52.140625 26.78125 51.667969 26.972656 C 50.898438 27.265625 49.949219 27.121094 49.363281 26.535156 C 48.21875 25.339844 47.683594 23.488281 48.414062 21.929688 L 49.839844 21.929688 C 49.59375 22.539062 49.425781 23.40625 49.65625 24.125 C 49.777344 24.429688 49.925781 24.820312 50.28125 24.929688 C 51.449219 24.96875 50.65625 23.296875 50.9375 22.515625 C 51.046875 21.929688 51.363281 21.320312 51.960938 21.054688 C 52.234375 20.917969 52.519531 20.855469 52.800781 20.851562 Z M 7.800781 32.675781 L 8.460938 34.617188 C 9.195312 34.613281 9.90625 34.640625 10.667969 34.621094 L 8.972656 36.039062 C 9.136719 36.636719 9.277344 37.324219 9.484375 38.125 L 7.800781 36.953125 C 7.09375 37.277344 6.667969 37.671875 5.9375 38.050781 L 6.523438 36.039062 C 5.96875 35.585938 5.347656 35.152344 4.820312 34.691406 C 5.585938 34.671875 6.257812 34.703125 6.996094 34.6875 C 7.339844 34.046875 7.488281 33.316406 7.800781 32.675781 Z M 52.09375 32.6875 L 52.75 34.625 C 53.484375 34.621094 54.144531 34.640625 54.957031 34.632812 L 53.261719 36.050781 C 53.425781 36.644531 53.566406 37.335938 53.773438 38.136719 L 52.09375 36.964844 C 51.382812 37.285156 50.957031 37.683594 50.226562 38.0625 L 50.808594 36.050781 C 50.257812 35.597656 49.632812 35.164062 49.113281 34.703125 C 49.875 34.679688 50.546875 34.714844 51.285156 34.699219 C 51.585938 34.03125 51.796875 33.390625 52.09375 32.6875 Z M 13.707031 42.296875 C 14.050781 42.292969 14.398438 42.328125 14.746094 42.402344 C 15.683594 42.65625 16.5625 43.363281 17.125 44.230469 C 17.269531 44.582031 17.480469 44.859375 17.570312 45.390625 C 17.179688 45.636719 16.6875 45.835938 16.242188 46.054688 C 16.136719 45.25 15.429688 44.472656 14.636719 44.265625 C 13.980469 44.101562 13.261719 44.414062 12.773438 44.996094 C 12.371094 45.472656 12.25 46.152344 12.371094 46.75 C 12.6875 47.578125 13.566406 48.203125 14.453125 48.203125 L 14.710938 48.210938 C 14.46875 48.796875 14.308594 49.089844 14.054688 49.527344 C 12.578125 49.476562 11.09375 48.613281 10.542969 47.1875 C 10.070312 46.03125 10.277344 44.535156 11.019531 43.570312 C 11.695312 42.710938 12.671875 42.320312 13.707031 42.296875 Z M 44.574219 42.617188 C 44.929688 42.851562 45.183594 43.15625 45.523438 43.460938 L 45.617188 43.554688 L 43.421875 45.59375 L 44.152344 46.476562 C 44.773438 45.988281 45.445312 45.46875 46.109375 44.851562 C 46.449219 45.136719 46.726562 45.472656 47.046875 45.851562 C 46.390625 46.476562 45.707031 46.902344 45.136719 47.5 C 45.378906 47.804688 45.566406 48.152344 45.9375 48.515625 L 48.304688 46.566406 L 49.3125 47.609375 C 47.972656 48.882812 46.511719 50.195312 45.121094 51.210938 L 40.992188 45.875 C 42.308594 44.777344 43.417969 43.777344 44.574219 42.617188 Z M 19.003906 46.230469 C 20.347656 46.238281 21.570312 46.894531 22.277344 47.957031 C 23.019531 48.90625 23.03125 50.382812 22.566406 51.464844 C 22.050781 52.570312 21.058594 53.269531 19.972656 53.515625 C 18.660156 53.71875 17.414062 53.296875 16.464844 52.382812 C 15.625 51.457031 15.164062 50.125 15.589844 48.835938 C 15.964844 47.433594 17.332031 46.410156 18.734375 46.238281 C 18.824219 46.234375 18.914062 46.230469 19.003906 46.230469 Z M 40.203125 46.3125 C 40.480469 46.632812 40.640625 47 40.878906 47.386719 L 40.941406 47.5 L 38.265625 48.84375 L 38.71875 49.894531 C 39.535156 49.582031 40.242188 49.292969 41.050781 48.882812 C 41.300781 49.253906 41.46875 49.652344 41.671875 50.105469 C 40.9375 50.496094 40.175781 50.800781 39.371094 51.152344 C 39.523438 51.515625 39.597656 51.777344 39.859375 52.355469 L 42.675781 51.148438 L 43.355469 52.433594 C 41.710938 53.277344 39.941406 54.125 38.320312 54.710938 L 35.851562 48.429688 C 37.425781 47.746094 38.769531 47.097656 40.203125 46.3125 Z M 24.398438 48.535156 C 26.019531 48.882812 27.679688 49.191406 29.257812 49.425781 C 29.171875 49.921875 29.140625 50.519531 29.058594 51.136719 C 28.039062 50.96875 27.066406 50.785156 26.089844 50.640625 C 26.035156 51.128906 25.898438 51.421875 25.855469 51.792969 C 26.734375 52.054688 27.542969 52.140625 28.390625 52.296875 L 28.148438 53.863281 C 27.308594 53.753906 26.402344 53.609375 25.539062 53.421875 C 25.347656 54.101562 25.175781 54.960938 24.929688 55.699219 C 24.210938 55.585938 23.445312 55.421875 22.753906 55.148438 L 24.359375 48.667969 Z M 34.960938 48.6875 C 35.03125 49.1875 35.179688 49.765625 35.289062 50.382812 C 34.265625 50.53125 33.285156 50.652344 32.3125 50.808594 C 32.410156 51.289062 32.363281 51.613281 32.4375 51.980469 C 33.351562 51.960938 34.152344 51.800781 35.003906 51.6875 L 35.253906 53.25 C 34.421875 53.402344 33.507812 53.542969 32.632812 53.628906 C 32.65625 54.335938 32.753906 55.199219 32.742188 55.980469 C 32.023438 56.089844 31.246094 56.167969 30.503906 56.121094 L 30.066406 49.457031 L 30.058594 49.316406 C 31.707031 49.15625 33.382812 48.945312 34.960938 48.6875 Z M 34.960938 48.6875 "/>
<path style=" stroke:none;fill-rule:nonzero;fill:rgb(2.352941%,46.27451%,33.333333%);fill-opacity:1;" d="M 30.757812 5.445312 C 30.929688 5.625 30.890625 6.003906 30.792969 6.210938 C 30.476562 6.578125 29.890625 6.566406 29.40625 6.503906 C 29.441406 6.089844 29.289062 5.6875 29.320312 5.261719 C 29.734375 5.324219 30.453125 5.117188 30.757812 5.445312 "/>
<path style=" stroke:none;fill-rule:nonzero;fill:rgb(2.352941%,46.27451%,33.333333%);fill-opacity:1;" d="M 22.714844 7.125 C 22.835938 7.429688 22.84375 7.925781 22.585938 8.105469 L 21.378906 8.617188 C 21.078125 8.066406 20.949219 7.6875 20.742188 7.234375 C 21.304688 7.027344 22.265625 6.1875 22.714844 7.125 "/>
<path style=" stroke:none;fill-rule:nonzero;fill:rgb(2.352941%,46.27451%,33.333333%);fill-opacity:1;" d="M 31.160156 8.222656 C 31.257812 8.648438 31.0625 9.089844 30.648438 9.171875 C 30.257812 9.234375 29.964844 9.199219 29.550781 9.210938 C 29.492188 8.769531 29.453125 8.1875 29.492188 7.820312 C 30.050781 7.894531 30.890625 7.589844 31.160156 8.222656 "/>
<path style=" stroke:none;fill-rule:nonzero;fill:rgb(2.352941%,46.27451%,33.333333%);fill-opacity:1;" d="M 15.953125 12.644531 C 15.625 12.953125 15.257812 13.242188 14.855469 13.523438 C 14.5625 12.828125 14.285156 12.207031 13.980469 11.4375 C 14.679688 11.8125 15.292969 12.242188 15.953125 12.644531 "/>
<path style=" stroke:none;fill-rule:nonzero;fill:rgb(0.392157%,0.392157%,0.392157%);fill-opacity:1;" d="M 29.789062 13.75 C 27.175781 13.769531 24.582031 14.378906 22.496094 15.570312 C 17.34375 18.191406 14.234375 23.515625 13.832031 29.019531 L 13.976562 29.3125 C 15.914062 30.351562 17.171875 28.070312 19.0625 28.328125 C 19.484375 28.523438 18.976562 28.851562 18.988281 29.132812 C 18.839844 29.496094 18.328125 29.324219 18 29.425781 C 16.707031 29.984375 15.378906 31.070312 13.867188 30.484375 C 13.867188 30.484375 13.878906 30.597656 13.890625 30.757812 C 13.921875 31.171875 13.976562 31.910156 13.976562 31.910156 C 15.671875 32.445312 16.769531 30.679688 18.363281 30.886719 C 18.328125 31.238281 18.304688 31.617188 18.109375 31.871094 C 16.648438 31.945312 15.730469 33.324219 14.195312 33.226562 L 14.488281 34.394531 C 15.816406 34.53125 16.671875 33.164062 18 33.300781 L 17.964844 34.175781 C 16.792969 34.285156 16.039062 35.382812 14.859375 35.453125 C 15.015625 38.160156 16.890625 35.039062 18.070312 35.566406 C 18.121094 35.855469 18.292969 36.136719 18.179688 36.445312 C 17.230469 36.429688 16.632812 37.261719 15.804688 37.539062 C 15.953125 37.882812 16.050781 38.367188 16.425781 38.488281 C 17.132812 38.195312 17.707031 37.578125 18.546875 37.613281 C 18.449219 37.296875 18.363281 36.867188 18.402344 36.589844 C 19.460938 36.867188 20.070312 36.039062 20.816406 35.566406 C 20.984375 34.066406 22.03125 32.921875 22.679688 31.617188 C 22.746094 31.328125 22.769531 31.042969 22.765625 30.757812 C 22.734375 29.171875 21.777344 27.640625 22.53125 25.988281 C 22.765625 25.339844 23.167969 24.492188 23.847656 24.308594 C 22.59375 25.804688 22.828125 28.097656 23.484375 29.789062 C 23.617188 30.132812 23.664062 30.453125 23.652344 30.757812 C 23.59375 32.09375 22.351562 33.113281 21.875 34.324219 C 21.277344 35.53125 21.824219 36.90625 22.496094 37.90625 C 21.53125 38.648438 20.644531 39.597656 19.386719 39.625 C 19.035156 39.449219 19.023438 38.964844 18.839844 38.636719 C 18.097656 38.488281 17.5 39.003906 16.90625 39.367188 L 17.597656 40.242188 C 18.109375 40 18.695312 39.476562 19.28125 39.84375 C 20.144531 40.867188 18.4375 40.351562 18.21875 40.976562 C 18.460938 41.304688 18.757812 41.546875 19.0625 41.816406 C 19.414062 41.707031 19.695312 41.425781 20.121094 41.484375 C 20.292969 41.691406 20.488281 41.898438 20.558594 42.144531 L 19.902344 42.546875 C 20.375 43.035156 20.976562 43.496094 21.546875 43.71875 C 21.886719 42.570312 22.800781 41.683594 23.226562 40.574219 C 23.3125 40.148438 23.335938 39.632812 23.445312 39.257812 C 24.675781 41.171875 22.09375 42.304688 22.09375 44.117188 C 22.363281 44.363281 22.691406 44.496094 23.007812 44.628906 C 22.960938 43.203125 24.152344 42.289062 24.652344 41.085938 C 25.566406 39.171875 23.457031 37.976562 22.789062 36.445312 C 22.15625 35.054688 23.042969 33.75 23.921875 32.714844 C 24.53125 32.054688 24.691406 31.40625 24.636719 30.757812 C 24.515625 29.289062 23.304688 27.8125 23.8125 26.171875 C 24.105469 25.148438 24.542969 23.925781 25.601562 23.5 C 24.832031 24.390625 24.429688 25.425781 24.359375 26.609375 C 24.148438 28.214844 25.433594 29.328125 25.507812 30.757812 C 25.519531 31.042969 25.484375 31.339844 25.382812 31.65625 C 24.785156 32.945312 23.433594 33.917969 23.445312 35.453125 C 23.289062 37.476562 25.933594 38.246094 25.640625 40.320312 C 25.617188 42.121094 23.542969 43.117188 23.996094 45.066406 L 25.128906 45.4375 C 24.484375 43.242188 26.761719 42.023438 26.773438 40.0625 C 26.882812 38.402344 25.105469 37.539062 24.652344 36.113281 C 24.179688 34.699219 25.214844 33.566406 26.003906 32.492188 C 26.394531 31.886719 26.484375 31.316406 26.421875 30.757812 C 26.265625 29.375 25.148438 28.082031 25.203125 26.574219 C 25.175781 25.183594 25.785156 23.820312 26.992188 23.171875 C 26.625 23.695312 26.210938 24.195312 26.003906 24.78125 C 25.25 26.828125 26.515625 28.582031 27.140625 30.335938 C 27.1875 30.484375 27.21875 30.621094 27.238281 30.757812 C 27.472656 32.382812 25.808594 33.421875 25.492188 34.90625 C 25.066406 36.710938 27.003906 37.539062 27.429688 39.039062 C 28.34375 41.484375 25.382812 42.910156 26.078125 45.359375 C 26.066406 46.078125 26.90625 45.800781 27.355469 45.945312 C 26.261719 43.925781 28.027344 42.253906 28.5625 40.5 C 29.160156 38.625 27.371094 37.5625 26.628906 36.113281 C 25.847656 34.480469 27.625 33.46875 28.015625 32.09375 C 28.34375 31.152344 29.1875 32.019531 29.734375 31.910156 C 30.476562 32.046875 31.125 31.3125 31.746094 31.835938 C 32.046875 33.082031 33.484375 33.847656 33.496094 35.199219 C 33.449219 37.292969 30.414062 38.390625 31.378906 40.679688 C 32.171875 42.277344 33.523438 44.105469 32.621094 45.945312 L 33.753906 45.691406 C 34.507812 43.800781 33.109375 42.351562 32.4375 40.828125 C 31.828125 39.085938 33.351562 37.78125 34.265625 36.445312 C 35.132812 34.820312 33.742188 33.492188 32.953125 32.238281 C 32.679688 31.722656 32.621094 31.230469 32.6875 30.757812 C 32.828125 29.753906 33.515625 28.824219 33.828125 27.886719 C 34.5 26.292969 34.121094 24.308594 32.875 23.101562 L 32.914062 23.0625 C 33.535156 23.429688 34.09375 24.074219 34.375 24.707031 C 35.441406 26.851562 33.917969 28.75 33.539062 30.757812 L 33.5 30.996094 C 33.464844 32.410156 34.621094 33.082031 35.183594 34.214844 C 36.117188 36.039062 34.464844 37.332031 33.539062 38.710938 C 32.039062 41.28125 35.621094 42.789062 34.890625 45.359375 L 35.984375 44.996094 C 36.265625 43.617188 35.230469 42.5 34.558594 41.378906 C 33.632812 39.5 35.289062 38.050781 36.242188 36.625 C 37.082031 34.847656 35.621094 33.347656 34.777344 31.984375 C 34.507812 31.589844 34.425781 31.175781 34.449219 30.757812 C 34.496094 29.960938 34.933594 29.152344 35.253906 28.472656 C 35.886719 26.765625 35.449219 24.695312 34.339844 23.429688 C 35.085938 23.734375 35.632812 24.5625 35.875 25.292969 C 36.753906 27.109375 35.679688 28.925781 35.328125 30.632812 L 35.324219 30.757812 C 35.3125 32.394531 36.859375 33.300781 37.300781 34.757812 C 37.726562 36.269531 36.523438 37.316406 35.804688 38.414062 C 33.644531 40.660156 37.007812 42.339844 36.972656 44.558594 C 37.289062 44.421875 37.703125 44.359375 37.886719 44.042969 C 37.726562 42.8125 36.679688 41.949219 36.242188 40.828125 C 36.21875 40.292969 36.09375 39.632812 36.460938 39.21875 L 36.535156 39.292969 C 36.398438 41.082031 37.960938 42.167969 38.433594 43.714844 C 38.984375 43.382812 39.554688 43.070312 40.007812 42.585938 C 39.835938 42.414062 39.582031 42.28125 39.351562 42.179688 C 39.226562 41.914062 39.578125 41.65625 39.75 41.414062 L 40.773438 41.777344 C 41.078125 41.496094 41.40625 41.269531 41.578125 40.902344 C 41.210938 40.644531 40.808594 40.460938 40.371094 40.390625 C 40.359375 40.109375 40.515625 39.890625 40.699219 39.695312 C 41.320312 39.671875 41.808594 39.960938 42.308594 40.207031 C 42.578125 39.964844 42.871094 39.648438 42.96875 39.296875 L 41.648438 38.636719 C 40.75 38.0625 40.992188 39.304688 40.554688 39.585938 C 39.324219 39.535156 38.445312 38.671875 37.519531 37.902344 C 37.628906 37.34375 38.070312 36.917969 38.214844 36.367188 C 38.75 34.578125 37.328125 33.226562 36.535156 31.800781 C 36.335938 31.449219 36.261719 31.105469 36.261719 30.757812 C 36.269531 29.789062 36.863281 28.820312 36.898438 27.8125 C 37.203125 26.511719 36.59375 25.257812 36.09375 24.195312 C 36.433594 24.40625 36.800781 24.683594 37.007812 25.035156 C 37.691406 26.375 37.886719 28.242188 37.265625 29.679688 C 37.113281 30.0625 37.058594 30.421875 37.078125 30.757812 C 37.179688 32.441406 39.070312 33.621094 39.09375 35.417969 C 39.820312 35.964844 40.484375 36.882812 41.46875 36.589844 C 41.542969 36.941406 41.34375 37.316406 41.359375 37.648438 C 42.234375 37.597656 42.820312 38.257812 43.589844 38.488281 C 43.769531 38.171875 44.085938 37.855469 44.0625 37.5 C 43.199219 37.246094 42.578125 36.394531 41.617188 36.367188 L 41.796875 35.527344 C 42.808594 35.503906 43.550781 36.359375 44.5 36.589844 C 44.832031 36.34375 44.941406 35.894531 45.050781 35.492188 C 43.882812 35.308594 43.039062 34.320312 41.871094 34.136719 C 41.894531 33.847656 41.808594 33.507812 41.945312 33.261719 C 43.050781 33.261719 43.78125 34.152344 44.796875 34.394531 C 45.769531 34.859375 45.453125 33.703125 45.671875 33.261719 C 44.125 33.324219 43.1875 31.886719 41.6875 31.835938 L 41.503906 30.921875 C 43.125 30.65625 44.222656 32.421875 45.890625 31.949219 C 46.050781 31.523438 46.015625 31.171875 46 30.757812 L 46 30.484375 C 44.109375 31.226562 42.867188 29.339844 41.066406 29.351562 C 40.832031 29.082031 40.773438 28.753906 40.660156 28.4375 C 42.695312 27.78125 44.039062 30.714844 46.035156 29.203125 C 45.878906 26.730469 45.351562 24.40625 44.210938 22.335938 C 43.011719 19.96875 40.808594 17.640625 38.507812 16.230469 C 36.132812 14.550781 32.945312 13.722656 29.789062 13.75 Z M 29.917969 14.765625 C 30.320312 15.316406 30.453125 16.035156 30.792969 16.628906 L 32.769531 16.738281 L 32.730469 16.921875 L 31.269531 18.3125 C 31.523438 18.933594 31.78125 19.554688 32.039062 20.175781 C 33.148438 19.53125 34.207031 18.726562 35.546875 18.640625 C 35.425781 19.347656 34.890625 20.09375 34.960938 20.796875 C 35.789062 20.566406 36.546875 20.054688 37.445312 20.101562 C 36.886719 21.136719 36.070312 22.175781 36.019531 23.464844 C 34.789062 23.003906 33.523438 22.445312 32.148438 22.226562 C 29.210938 21.722656 26.382812 22.367188 23.957031 23.539062 C 23.75 22.308594 23.152344 21.238281 22.421875 20.214844 C 22.859375 20.066406 23.398438 20.308594 23.847656 20.433594 C 24.226562 20.539062 24.542969 20.796875 24.945312 20.875 C 25.015625 20.140625 24.589844 19.421875 24.289062 18.75 C 24.496094 18.589844 24.824219 18.710938 25.054688 18.789062 C 26.015625 19.152344 26.882812 19.722656 27.757812 20.25 C 28.210938 19.722656 28.378906 18.96875 28.5625 18.273438 L 27.066406 16.921875 L 27.066406 16.777344 L 29.039062 16.667969 C 29.367188 16.046875 29.589844 15.390625 29.917969 14.765625 Z M 17.15625 21.382812 C 17.269531 21.386719 17.398438 21.484375 17.488281 21.527344 C 18.429688 22.261719 18.878906 23.269531 18.988281 24.378906 C 20.167969 23.929688 21.777344 23.148438 23.042969 23.976562 C 22.773438 24.355469 22.253906 24.5625 21.875 24.890625 C 21.253906 25.5 20.496094 26.242188 20.046875 27.011719 C 18.523438 26.707031 17.304688 27.59375 16.027344 28.109375 C 15.539062 28.203125 14.894531 28.253906 14.492188 27.925781 C 15.699219 25.9375 17.402344 24.109375 16.976562 21.492188 C 17.023438 21.40625 17.089844 21.375 17.15625 21.382812 Z M 42.820312 21.417969 C 42.980469 21.441406 43.089844 21.613281 43.039062 21.785156 C 42.566406 24.269531 44.269531 26.023438 45.414062 27.925781 C 44.101562 28.800781 42.855469 27.449219 41.613281 27.121094 C 41.066406 27.035156 40.421875 26.964844 39.894531 27.046875 C 39.140625 25.878906 38.128906 24.78125 36.898438 24.125 C 36.972656 23.722656 37.53125 23.699219 37.921875 23.648438 C 39.007812 23.539062 39.957031 23.988281 40.847656 24.453125 C 41.015625 24.050781 41.089844 23.597656 41.210938 23.171875 C 41.503906 22.453125 42.078125 21.722656 42.820312 21.417969 Z M 29.785156 22.734375 C 29.851562 22.730469 29.917969 22.730469 29.984375 22.734375 C 30.34375 22.734375 30.703125 22.765625 31.046875 22.808594 C 31.757812 22.992188 32.535156 23.296875 32.875 24.050781 C 32.914062 24.257812 33.121094 24.441406 32.984375 24.671875 C 32.265625 24.453125 31.453125 24.574219 30.757812 24.855469 C 30.132812 25.320312 30.230469 26.269531 30.390625 26.9375 L 30.574219 27.085938 C 30.878906 27.011719 30.890625 26.621094 31.160156 26.535156 C 31.609375 26.644531 32.234375 26.804688 32.660156 26.535156 C 33.035156 26.546875 33.023438 27.070312 33.058594 27.339844 C 32.792969 28.753906 32.195312 30.289062 30.757812 30.960938 C 30.160156 31.25 29.390625 31.054688 28.820312 30.847656 C 27.40625 30.007812 26.613281 28.339844 26.773438 26.832031 C 26.882812 26.597656 27.054688 26.414062 27.320312 26.574219 C 27.890625 26.960938 28.515625 26.269531 29.039062 26.757812 C 29.671875 26.476562 29.292969 25.695312 29.292969 25.109375 C 28.78125 24.453125 27.90625 24.546875 27.140625 24.597656 C 26.796875 24.390625 27.164062 24.0625 27.25 23.832031 C 27.832031 23.007812 28.785156 22.753906 29.785156 22.734375 Z M 27.46875 25.214844 C 27.941406 25.195312 28.40625 25.375 28.636719 25.730469 L 28.636719 25.878906 C 28.222656 25.84375 27.550781 25.429688 27.171875 25.953125 C 26.929688 26.0625 26.894531 25.78125 26.917969 25.621094 C 26.871094 25.4375 26.980469 25.292969 27.140625 25.257812 C 27.246094 25.234375 27.355469 25.21875 27.46875 25.214844 Z M 32.144531 25.253906 C 32.484375 25.246094 32.835938 25.273438 32.984375 25.550781 C 32.976562 25.695312 33.011719 25.867188 32.839844 25.953125 C 32.378906 25.769531 31.734375 25.511719 31.269531 25.878906 C 31 25.304688 31.746094 25.429688 32 25.257812 C 32.046875 25.257812 32.09375 25.253906 32.144531 25.253906 Z M 29.984375 27.640625 C 29.726562 27.640625 29.453125 27.71875 29.257812 27.851562 C 29.28125 27.949219 29.199219 28.09375 29.332031 28.144531 C 29.722656 28.0625 30.429688 28.351562 30.644531 27.890625 C 30.492188 27.71875 30.246094 27.640625 29.984375 27.640625 Z M 28.601562 28.839844 L 28.636719 29.058594 C 29.113281 29.375 29.257812 29.914062 29.917969 29.863281 C 30.5 29.898438 30.941406 29.351562 31.230469 28.914062 C 30.441406 28.804688 29.476562 28.972656 28.601562 28.839844 Z M 28.601562 28.839844 "/>
<path style=" stroke:none;fill-rule:nonzero;fill:rgb(2.352941%,46.27451%,33.333333%);fill-opacity:1;" d="M 20.742188 48.835938 C 21.15625 49.796875 20.679688 50.746094 20.007812 51.429688 C 19.585938 51.769531 19.027344 51.984375 18.464844 51.777344 C 18.113281 51.609375 17.679688 51.296875 17.578125 50.917969 C 17.3125 49.941406 17.757812 49.03125 18.4375 48.359375 C 18.851562 48.015625 19.449219 47.824219 19.972656 48.066406 C 20.289062 48.164062 20.644531 48.519531 20.742188 48.835938 "/>
<path style=" stroke:none;fill-rule:nonzero;fill:rgb(0.392157%,0.392157%,0.392157%);fill-opacity:1;" d="M 49.761719 55.179688 C 50.714844 55.179688 51.53125 55.917969 51.53125 56.925781 C 51.53125 57.9375 50.714844 58.679688 49.761719 58.679688 C 48.800781 58.679688 47.984375 57.9375 47.984375 56.925781 C 47.984375 55.917969 48.800781 55.179688 49.761719 55.179688 Z M 49.761719 55.460938 C 48.949219 55.460938 48.324219 56.089844 48.324219 56.925781 C 48.324219 57.777344 48.949219 58.394531 49.761719 58.394531 C 50.5625 58.394531 51.191406 57.777344 51.191406 56.925781 C 51.191406 56.089844 50.5625 55.460938 49.761719 55.460938 Z M 49.390625 57.9375 L 49.078125 57.9375 L 49.078125 55.917969 L 49.851562 55.917969 C 50.332031 55.917969 50.570312 56.097656 50.570312 56.496094 C 50.570312 56.859375 50.339844 57.015625 50.039062 57.050781 L 50.617188 57.9375 L 50.277344 57.9375 L 49.738281 57.0625 L 49.386719 57.0625 L 49.386719 57.9375 Z M 49.390625 56.804688 L 49.757812 56.804688 C 50.132812 56.804688 50.257812 56.699219 50.257812 56.476562 C 50.257812 56.28125 50.164062 56.171875 49.808594 56.171875 L 49.390625 56.171875 Z M 49.390625 56.804688 "/>
</g>
</svg>
